<?xml version="1.0" encoding="UTF-8"?>
<!DOCTYPE svg PUBLIC "-//W3C//DTD SVG 1.1//EN" "http://www.w3.org/Graphics/SVG/1.1/DTD/svg11.dtd">
<!-- Creator: CorelDRAW -->
<svg xmlns="http://www.w3.org/2000/svg" xml:space="preserve" width="5in" height="2in" version="1.1" style="shape-rendering:geometricPrecision; text-rendering:geometricPrecision; image-rendering:optimizeQuality; fill-rule:evenodd; clip-rule:evenodd"
viewBox="0 0 1393.23 703.12"
 xmlns:xlink="http://www.w3.org/1999/xlink"
 xmlns:xodm="http://www.corel.com/coreldraw/odm/2003">
 <defs>
  <style type="text/css">
   <![CDATA[
    .fil3 {fill:none}
    .fil2 {fill:#17593A}
    .fil1 {fill:#17593A;fill-rule:nonzero}
    .fil0 {fill:#C2252A;fill-rule:nonzero}
   ]]>
  </style>
   <clipPath id="id0">
    <path d="M-0 0l1393.23 0 0 703.12 -1393.23 0 0 -703.12z"/>
   </clipPath>
 </defs>
 <g id="Layer_x0020_1">
  <metadata id="CorelCorpID_0Corel-Layer"/>
  <g>
  </g>
  <g style="clip-path:url(#id0)">
   <g id="_2367168694416">
    <g>
     <g>
      <path class="fil0" d="M570.23 319.88c-4.78,-10.6 -0.06,-23.07 10.54,-27.84 10.6,-4.78 23.07,-0.06 27.84,10.54 6.44,14.18 18.96,24.82 34.38,31.83 14.84,6.74 32.24,10.11 49.81,10.11 17.56,0 34.97,-3.37 49.81,-10.11 15.43,-7.01 27.94,-17.64 34.38,-31.83 4.78,-10.6 17.24,-15.32 27.84,-10.54 10.6,4.78 15.32,17.24 10.54,27.84 -11.02,24.25 -31.13,41.86 -55.47,52.92 -20.4,9.26 -43.83,13.9 -67.11,13.9 -23.27,0 -46.71,-4.63 -67.11,-13.9 -24.34,-11.05 -44.46,-28.66 -55.47,-52.92z"/>
      <path class="fil1" d="M817.17 253.19c9.83,6.13 22.81,3.2 29,-6.52 6.19,-9.73 3.24,-22.58 -6.59,-28.71 -22.9,-14.27 -45.68,-29.52 -68.35,-45.59 -22.6,-16.01 -44.32,-32.32 -65.33,-48.86 -7.92,-6.23 -18.97,-5.91 -26.47,0.22 -20.92,16.46 -42.55,32.7 -65.05,48.64 -22.68,16.07 -45.45,31.32 -68.35,45.59 -9.83,6.13 -12.78,18.98 -6.59,28.71 6.19,9.73 19.17,12.65 29,6.52 24.61,-15.33 48.05,-30.98 70.5,-46.89 18.09,-12.82 36.04,-26.16 53.88,-39.94 17.83,13.78 35.78,27.12 53.88,39.94 22.45,15.91 45.89,31.56 70.5,46.89z"/>
     </g>
     <path class="fil2" d="M1057.62 446.79l54.68 134.97 -29.51 0c-2.53,0 -4.68,-1.53 -5.5,-3.92l-37.19 -107.84 -37.36 107.85c-0.83,2.39 -2.97,3.92 -5.5,3.92l-28.72 0 54.49 -134.96c0.91,-2.25 2.98,-3.64 5.4,-3.64l23.83 0c2.42,0 4.49,1.39 5.4,3.64zm-230.55 69.16l0 -6.99c0,-25.53 -15.32,-44.35 -41.04,-44.35 -25.47,0 -41.03,18.78 -41.03,44.35l0 6.99c0,25.49 15.34,44.35 41.03,44.35 25.47,0 41.04,-18.78 41.04,-44.35zm32.47 -3.49c0,42.39 -31.27,71.68 -73.31,71.68 -42.47,0 -73.71,-28.94 -73.71,-71.68 0,-42.71 31.5,-71.68 73.51,-71.68 42.02,0 73.51,29.18 73.51,71.68zm-445.27 3.49l0 -6.99c0,-25.53 -15.32,-44.35 -41.04,-44.35 -25.47,0 -41.04,18.78 -41.04,44.35l0 6.99c0,25.49 15.34,44.35 41.04,44.35 25.47,0 41.04,-18.78 41.04,-44.35zm32.47 -3.49c0,42.39 -31.27,71.68 -73.31,71.68 -42.47,0 -73.71,-28.94 -73.71,-71.68 0,-42.71 31.5,-71.68 73.51,-71.68 42.02,0 73.51,29.18 73.51,71.68zm6.59 54.9l6.95 -17.27c0.66,-1.63 1.86,-2.77 3.53,-3.34 1.66,-0.56 3.32,-0.39 4.83,0.5 10.53,6.21 23.33,10.81 35.65,12.13 10.45,1.12 34,-2.29 37.03,-14.81 3.7,-15.25 -26.55,-21.87 -36.81,-24.19 -23.61,-5.34 -51.34,-15.53 -45.64,-44.65 2.88,-14.69 12.03,-23.84 23.7,-29.04 10.25,-4.57 22.43,-6.09 34,-5.63 16.48,0.65 33.47,4.95 45.15,12.29l-5.37 14.6c-0.58,1.58 -1.68,2.72 -3.24,3.37 -1.56,0.64 -3.14,0.61 -4.67,-0.09 -7.06,-3.26 -17,-6.78 -27.57,-7.93 -15.06,-1.63 -31.91,3.97 -31.79,17.12 0.11,11.44 21.51,15.23 30.76,17.55 13.02,3.27 29.56,8.01 40.75,17.76 21.61,18.86 13.77,47.33 -9.92,59.8 -15.05,7.92 -36.73,10.03 -57.01,7.07 -15.48,-2.26 -30.12,-7.46 -40.35,-15.23zm753.08 -78.57c0,-17.35 -12.25,-24.16 -29.5,-24.16l-26.14 0 0 56.47 26.14 0c17.17,0 29.5,-11.63 29.5,-28.82l0 -3.49zm2.91 48.78l29.48 44.19 -30.46 0c-2.05,0 -3.82,-0.97 -4.92,-2.7l-21.06 -33.21c-1.13,-1.78 -2.96,-2.75 -5.06,-2.7 -8.78,0.22 -17.77,0 -26.53,0l0 32.79c0,3.21 -2.62,5.82 -5.82,5.82l-26.25 0 0 -132.78c0,-3.21 2.61,-5.82 5.82,-5.82l54.18 0c21.21,0 41.71,6.17 52.87,23.36 9.78,15.07 9.88,38.47 0,53.56 -5.52,8.43 -13.37,13.96 -22.24,17.49zm-627.53 29.79l6.95 -17.27c0.66,-1.63 1.86,-2.77 3.53,-3.34 1.66,-0.56 3.32,-0.39 4.83,0.5 10.53,6.21 23.33,10.81 35.65,12.13 10.45,1.12 34.27,-3.01 37.02,-14.82 3.39,-14.57 -27.24,-22.02 -36.79,-24.18 -23.61,-5.34 -51.34,-15.53 -45.64,-44.65 2.49,-12.74 11.62,-24.42 23.47,-29.51 21.66,-9.3 58.79,-5.82 79.38,7.13l-5.37 14.6c-0.58,1.58 -1.68,2.72 -3.24,3.37 -1.56,0.64 -3.14,0.61 -4.67,-0.09 -7.06,-3.26 -17,-6.78 -27.57,-7.93 -15.06,-1.63 -31.91,3.97 -31.79,17.12 0.11,11.44 21.51,15.23 30.76,17.55 13.02,3.27 29.56,8.01 40.75,17.76 21.61,18.86 13.77,47.33 -9.92,59.8 -15.04,7.92 -36.73,10.03 -57.01,7.07 -15.47,-2.26 -30.12,-7.46 -40.35,-15.23zm-300.4 -124.21l0 135.11c0,1.92 -1.57,3.49 -3.49,3.49l-10.06 0c-3.35,0 -6.23,-1.25 -8.52,-3.7l-73.38 -78.71 0 76.59c0,3.21 -2.62,5.82 -5.82,5.82l-25.86 0 0 -135.11c0,-1.92 1.57,-3.49 3.49,-3.49l10.29 0c3.35,0 6.24,1.26 8.53,3.72l73.13 78.66 0 -76.55c0,-3.21 2.62,-5.82 5.82,-5.82l25.86 0zm626.81 0l0 115.96 51.35 0c3.21,0 5.82,2.62 5.82,5.82l0 16.82 -89.25 0 0 -132.78c0,-3.21 2.62,-5.82 5.82,-5.82l26.26 0z"/>
    </g>
   </g>
  </g>
  <polygon class="fil3" points="-0,0 1393.23,0 1393.23,703.12 -0,703.12 "/>
 </g>
</svg>
